<?xml version="1.0" encoding="UTF-8" standalone="no"?><!DOCTYPE svg PUBLIC "-//W3C//DTD SVG 1.1//EN" "http://www.w3.org/Graphics/SVG/1.1/DTD/svg11.dtd"><svg width="100%" height="100%" viewBox="0 0 286 100" version="1.1" xmlns="http://www.w3.org/2000/svg" xmlns:xlink="http://www.w3.org/1999/xlink" xml:space="preserve" style="fill-rule:evenodd;clip-rule:evenodd;stroke-linejoin:round;stroke-miterlimit:1.41421;"><g><path d="M152.007,42.993l-16.57,-22.608l0,22.608l-2.25,0l0,-26.315l2.291,0l16.49,22.29l0,-22.29l2.247,0l0,26.315l-2.208,0Z" style="fill:#fff;fill-rule:nonzero;"/><path d="M162.737,42.993l0,-26.315l16.689,0l0,2.054l-14.439,0l0,9.745l14.164,0l0,2.048l-14.164,0l0,10.416l14.439,0l0,2.052l-16.689,0Z" style="fill:#fff;fill-rule:nonzero;"/><path d="M193.668,42.993l0,-24.261l-8.601,0l0,-2.054l19.489,0l0,2.054l-8.601,0l0,24.261l-2.287,0Z" style="fill:#fff;fill-rule:nonzero;"/><path d="M209.055,29.854c0,-8.127 5.957,-13.61 13.334,-13.61c4.339,0 7.498,1.736 9.902,4.497l-1.695,1.221c-1.855,-2.207 -4.854,-3.667 -8.207,-3.667c-6.192,0 -10.968,4.694 -10.968,11.559c0,6.785 4.776,11.598 10.968,11.598c3.511,0 6.274,-1.733 7.734,-3.196l0,-6.309l-9.944,0l0,-2.013l12.192,0l0,9.193c-2.326,2.603 -5.839,4.378 -9.982,4.378c-7.377,0 -13.334,-5.524 -13.334,-13.651" style="fill:#fff;fill-rule:nonzero;"/><path d="M240.063,42.993l0,-26.315l16.689,0l0,2.054l-14.439,0l0,9.745l14.162,0l0,2.048l-14.162,0l0,10.416l14.439,0l0,2.052l-16.689,0Z" style="fill:#fff;fill-rule:nonzero;"/><path d="M283.104,42.993l-16.57,-22.608l0,22.608l-2.248,0l0,-26.315l2.289,0l16.49,22.29l0,-22.29l2.249,0l0,26.315l-2.21,0Z" style="fill:#fff;fill-rule:nonzero;"/><path d="M138.593,83.408l0,-21.387l-7.693,0l0,-4.928l20.989,0l0,4.928l-7.655,0l0,21.387l-5.641,0Z" style="fill:#fff;fill-rule:nonzero;"/><path d="M165.814,62.693l-4.102,11.326l8.207,0l-4.105,-11.326Zm7.26,20.714l-1.617,-4.456l-11.282,0l-1.66,4.456l-6.391,0l10.179,-26.314l7.024,0l10.14,26.314l-6.393,0Z" style="fill:#fff;fill-rule:nonzero;"/><path d="M181.279,70.269c0,-8.323 6.312,-13.611 14.006,-13.611c5.483,0 8.917,2.759 10.889,5.879l-4.657,2.523c-1.181,-1.853 -3.43,-3.429 -6.232,-3.429c-4.774,0 -8.244,3.665 -8.244,8.638c0,4.972 3.47,8.641 8.244,8.641c2.329,0 4.536,-1.025 5.602,-2.013l0,-3.154l-6.942,0l0,-4.893l12.544,0l0,10.101c-2.681,2.995 -6.43,4.969 -11.204,4.969c-7.694,0 -14.006,-5.364 -14.006,-13.651" style="fill:#fff;fill-rule:nonzero;"/><path d="M211.144,79.698l3.038,-4.262c1.855,1.933 4.735,3.551 8.365,3.551c3.077,0 4.575,-1.417 4.575,-2.919c0,-4.657 -15.15,-1.462 -15.15,-11.362c0,-4.382 3.788,-8.009 9.983,-8.009c4.181,0 7.652,1.263 10.258,3.668l-3.119,4.105c-2.128,-1.974 -4.971,-2.88 -7.652,-2.88c-2.408,0 -3.749,1.066 -3.749,2.644c0,4.182 15.111,1.378 15.111,11.202c0,4.813 -3.433,8.443 -10.534,8.443c-5.05,0 -8.68,-1.697 -11.126,-4.181" style="fill:#fff;fill-rule:nonzero;"/><g><path d="M58.714,24.994l-43.283,74.97l-14.433,-24.986l43.288,-74.973l14.428,24.989Z" style="fill:#b6a2dd;fill-rule:nonzero;"/><path d="M44.285,0.005l0,-0.005l-28.858,0.005l-14.427,24.99l57.713,0l-14.428,-24.99Z" style="fill:#8960c6;fill-rule:nonzero;"/><path d="M101.998,0l-14.425,24.995l-19.241,0l-14.43,-24.995l48.096,0Z" style="fill:#b6a2dd;fill-rule:nonzero;"/></g></g></svg>