<?xml version="1.0" encoding="UTF-8" standalone="no"?><!DOCTYPE svg PUBLIC "-//W3C//DTD SVG 1.1//EN" "http://www.w3.org/Graphics/SVG/1.1/DTD/svg11.dtd"><svg width="100%" height="100%" viewBox="0 0 79 69" version="1.1" xmlns="http://www.w3.org/2000/svg" xmlns:xlink="http://www.w3.org/1999/xlink" xml:space="preserve" style="fill-rule:evenodd;clip-rule:evenodd;stroke-linejoin:round;stroke-miterlimit:1.41421;"><g><path d="M61.057,35.841c2.641,2.641 2.641,6.922 0,9.563c-5.197,5.198 -13.455,13.456 -18.653,18.653c-2.641,2.641 -6.922,2.641 -9.563,0c-7.295,-7.294 -21.107,-21.106 -28.272,-28.271c-2.925,-2.926 -4.569,-6.893 -4.569,-11.031c0,-4.943 0,-11.682 0,-16.344c0,-2.988 2.423,-5.411 5.411,-5.411c4.662,0 11.401,0 16.344,0c4.138,0 8.105,1.644 11.031,4.569c7.165,7.165 20.977,20.977 28.271,28.272Zm-51.275,-23.059c1.972,-1.973 5.175,-1.973 7.148,0c1.973,1.972 1.973,5.175 0,7.148c-1.973,1.973 -5.176,1.973 -7.148,0c-1.973,-1.973 -1.973,-5.176 0,-7.148Z" style="fill:#fff;"/><path d="M27.874,3l9.843,0c4.137,0 8.105,1.644 11.031,4.569c7.165,7.165 20.977,20.977 28.271,28.272c2.641,2.641 2.641,6.922 0,9.563c-5.198,5.198 -13.455,13.456 -18.653,18.653c-2.641,2.641 -6.923,2.641 -9.564,0l-0.139,-0.139l18.513,-18.514c2.641,-2.641 2.641,-6.922 0,-9.563c-7.294,-7.295 -21.106,-21.107 -28.271,-28.272c-2.926,-2.925 -6.894,-4.569 -11.031,-4.569Z" style="fill:#fff;"/></g></svg>