<?xml version="1.0" standalone="no"?>
<!DOCTYPE svg PUBLIC "-//W3C//DTD SVG 20010904//EN"
 "http://www.w3.org/TR/2001/REC-SVG-20010904/DTD/svg10.dtd">
<svg version="1.0" xmlns="http://www.w3.org/2000/svg"
 width="16.000000pt" height="16.000000pt" viewBox="0 0 16.000000 16.000000"
 preserveAspectRatio="xMidYMid meet">
<metadata>
Created by potrace 1.11, written by Peter Selinger 2001-2013
</metadata>
<g transform="translate(0.000000,16.000000) scale(0.002286,-0.002286)"
fill="#000000" stroke="none">
<path d="M987 6978 c-8 -13 -67 -115 -132 -228 -65 -113 -167 -290 -228 -395
-60 -104 -117 -203 -127 -220 -119 -207 -407 -706 -421 -729 -10 -17 -31 -55
-48 -83 l-29 -53 191 0 c106 0 556 0 1000 0 l808 0 -19 -33 c-10 -17 -74 -129
-142 -247 -67 -118 -131 -227 -141 -242 -11 -15 -19 -29 -19 -31 0 -3 -54 -97
-120 -211 -66 -113 -120 -208 -120 -210 0 -3 -17 -33 -39 -68 -21 -35 -99
-169 -174 -298 -74 -129 -249 -433 -389 -675 -140 -242 -270 -467 -289 -500
-19 -33 -38 -67 -44 -76 -5 -9 -19 -32 -29 -50 -10 -19 -99 -173 -197 -342
-99 -169 -179 -311 -179 -314 0 -4 -6 -14 -14 -22 -7 -9 -29 -45 -49 -82 l-37
-65 61 -105 c33 -57 73 -127 89 -154 16 -28 134 -233 262 -456 129 -222 261
-451 294 -507 32 -57 66 -115 75 -130 9 -15 27 -47 41 -72 14 -25 40 -70 58
-100 18 -30 47 -80 64 -110 49 -87 54 -95 59 -90 3 3 56 93 117 200 62 107
136 236 165 285 29 50 62 106 73 125 52 92 183 319 317 550 82 140 165 284
185 320 20 36 80 139 132 230 53 91 105 181 115 200 11 19 70 121 130 225 61
105 194 336 297 515 104 179 221 381 261 450 79 137 159 276 600 1040 163 283
330 571 370 640 40 69 83 143 95 165 12 22 49 86 81 141 l60 102 -144 248
c-79 137 -163 283 -187 324 -23 41 -50 89 -60 105 -94 162 -237 408 -255 440
-12 22 -73 128 -135 235 -62 107 -129 224 -150 260 -20 36 -44 77 -54 93 l-18
27 -999 0 -999 0 -13 -22z m2426 -1926 c-267 -463 -388 -672 -398 -689 -55
-97 -117 -205 -197 -343 -53 -91 -105 -181 -116 -200 -10 -19 -43 -75 -72
-125 -29 -49 -63 -108 -75 -130 -13 -22 -80 -139 -150 -260 -70 -121 -135
-233 -145 -250 -9 -16 -144 -250 -300 -520 -155 -269 -290 -503 -300 -520 -20
-36 -198 -344 -221 -383 -22 -38 -266 -461 -357 -619 -42 -73 -79 -133 -83
-133 -3 0 -11 10 -17 23 -12 24 -25 46 -157 272 -48 83 -97 168 -110 190 -39
70 -61 109 -94 163 -17 29 -31 57 -31 62 0 6 -4 10 -10 10 -5 0 -10 4 -10 10
0 5 -24 50 -54 101 l-54 91 32 57 c18 31 93 162 168 291 75 129 145 251 155
270 45 77 317 549 353 610 53 90 847 1466 875 1515 12 22 70 123 128 224 59
101 107 186 107 189 0 3 6 13 14 21 7 9 26 39 41 66 14 28 50 89 78 137 l51
87 537 0 538 0 -126 -217z"/>
<path d="M3670 6996 c0 -3 257 -450 279 -486 5 -8 47 -80 93 -159 123 -214
128 -223 150 -261 12 -19 31 -53 43 -75 13 -23 110 -191 217 -375 107 -184
197 -343 201 -353 7 -20 -67 -18 777 -17 435 0 567 3 576 13 9 9 257 436 452
778 32 55 169 293 191 330 11 19 32 57 46 84 15 28 33 57 41 66 8 8 14 18 14
21 0 3 39 72 86 154 48 82 104 179 125 217 l38 67 -1665 0 c-915 0 -1664 -2
-1664 -4z m2629 -413 c-8 -10 -20 -29 -27 -42 -8 -13 -23 -40 -34 -60 -11 -20
-62 -108 -113 -196 -51 -88 -103 -178 -115 -200 -12 -22 -46 -80 -75 -130 -29
-49 -62 -106 -73 -125 -10 -19 -36 -63 -56 -97 l-37 -63 -437 0 -437 0 -55 97
c-30 53 -67 117 -81 142 -52 91 -362 627 -381 659 l-20 32 978 0 c929 0 976
-1 963 -17z"/>
</g>
</svg>
