<svg xmlns="http://www.w3.org/2000/svg" xmlns:xlink="http://www.w3.org/1999/xlink" width="100%" height="100%" viewBox="0 0 213 82">
  <defs>
    <path id="tags-full_white-a" d="M0.0003,41.4057 C0.0003,63.8257 18.1743,81.9997 40.5943,81.9997 C63.0143,81.9997 81.1893,63.8257 81.1893,41.4057 C81.1893,18.9857 63.0143,0.8097 40.5943,0.8097 C18.1743,0.8097 0.0003,18.9857 0.0003,41.4057 Z"/>
  </defs>
  <g fill="none" fill-rule="evenodd">
    <path fill="#34BFE0" d="M81.189,41.595 C81.189,64.015 63.014,82.19 40.594,82.19 C18.174,82.19 0,64.015 0,41.595 C0,19.175 18.174,1 40.594,1 C63.014,1 81.189,19.175 81.189,41.595"/>
    <g transform="translate(0 .19)">
      <mask id="tags-full_white-b" fill="#fff">
        <use xlink:href="#tags-full_white-a"/>
      </mask>
      <polygon fill="#000" points="41.118 86.272 61.028 86.272 61.028 42.569 41.118 42.569" mask="url(#tags-full_white-b)"/>
      <polygon fill="#FFF" points="20.959 26.638 81.188 26.638 81.188 18.672 20.959 18.672" mask="url(#tags-full_white-b)"/>
      <polygon fill="#FFF" points="20.959 42.57 81.188 42.57 81.188 34.604 20.959 34.604" mask="url(#tags-full_white-b)"/>
    </g>
    <polygon fill="#FFF" points="120.397 13.86 123.486 13.86 123.486 28.432 120.854 28.432 114.249 19.328 114.249 28.432 111.16 28.432 111.16 13.86 114.005 13.86 120.397 22.752"/>
    <path fill="#FFF" d="M131.534 19.469C130.863 19.469 130.295 19.656 129.827 20.029 129.359 20.401 129.038 20.922 128.862 21.593L134.308 21.593C134.098 20.908 133.755 20.384 133.277 20.018 132.8 19.653 132.219 19.469 131.534 19.469M137.346 22.772C137.346 23.076 137.327 23.375 137.286 23.666L128.78 23.666C128.909 24.432 129.216 25.02 129.7 25.43 130.184 25.839 130.796 26.044 131.534 26.044 132.055 26.044 132.525 25.929 132.942 25.698 133.358 25.468 133.682 25.15 133.912 24.743L137.103 24.743C136.696 25.97 135.992 26.944 134.989 27.665 133.987 28.387 132.835 28.747 131.534 28.747 130.443 28.747 129.453 28.489 128.562 27.97 127.671 27.451 126.972 26.739 126.464 25.83 125.955 24.923 125.702 23.917 125.702 22.813 125.702 21.701 125.954 20.693 126.459 19.784 126.963 18.876 127.661 18.165 128.552 17.651 129.442 17.136 130.437 16.878 131.534 16.878 132.659 16.878 133.669 17.144 134.562 17.676 135.457 18.207 136.144 18.921 136.626 19.815 137.106 20.709 137.346 21.695 137.346 22.772M145.137 25.7288L146.52 25.7288 146.52 28.4318 144.365 28.4318C143.132 28.4318 142.158 28.0758 141.444 27.3608 140.729 26.6458 140.371 25.6648 140.371 24.4178L140.371 19.6318 138.339 19.6318 138.339 18.9818 142.78 14.2558 143.359 14.2558 143.359 17.1928 146.458 17.1928 146.458 19.6318 143.409 19.6318 143.409 24.0118C143.409 24.5608 143.559 24.9838 143.857 25.2828 144.155 25.5808 144.582 25.7288 145.137 25.7288M153.975 25.4348C154.801 25.4348 155.486 25.1588 156.028 24.6068 156.57 24.0538 156.84 23.3578 156.84 22.5178 156.84 21.6848 156.572 20.9958 156.033 20.4498 155.494 19.9048 154.808 19.6318 153.975 19.6318 153.148 19.6318 152.464 19.9048 151.922 20.4498 151.38 20.9958 151.109 21.6848 151.109 22.5178 151.109 23.3578 151.378 24.0538 151.917 24.6068 152.455 25.1588 153.142 25.4348 153.975 25.4348L153.975 25.4348zM157.836 17.1928L159.808 17.1928 159.808 27.1308C159.808 28.8858 159.296 30.2698 158.273 31.2828 157.25 32.2948 155.848 32.8018 154.067 32.8018 152.541 32.8018 151.272 32.4358 150.255 31.7048 149.24 30.9728 148.603 29.9628 148.345 28.6758L151.364 28.6758C151.526 29.1578 151.86 29.5318 152.364 29.7988 152.869 30.0668 153.419 30.2008 154.015 30.2008 154.808 30.2008 155.475 29.9618 156.017 29.4838 156.559 29.0058 156.83 28.3688 156.83 27.5688L156.83 27.1418C155.875 27.8128 154.804 28.1478 153.62 28.1478 152.589 28.1478 151.646 27.9008 150.789 27.4058 149.932 26.9118 149.258 26.2318 148.767 25.3688 148.276 24.5048 148.031 23.5548 148.031 22.5178 148.031 21.4888 148.276 20.5408 148.767 19.6778 149.258 18.8138 149.932 18.1308 150.789 17.6298 151.646 17.1288 152.589 16.8778 153.62 16.8778 155.076 16.8778 156.319 17.3558 157.348 18.3108L157.836 17.1928zM167.826 19.469C167.155 19.469 166.587 19.656 166.119 20.029 165.651 20.401 165.33 20.922 165.153 21.593L170.6 21.593C170.39 20.908 170.047 20.384 169.569 20.018 169.092 19.653 168.511 19.469 167.826 19.469M173.638 22.772C173.638 23.076 173.618 23.375 173.578 23.666L165.072 23.666C165.201 24.432 165.508 25.02 165.992 25.43 166.476 25.839 167.088 26.044 167.826 26.044 168.347 26.044 168.817 25.929 169.233 25.698 169.65 25.468 169.973 25.15 170.204 24.743L173.394 24.743C172.988 25.97 172.284 26.944 171.281 27.665 170.278 28.387 169.127 28.747 167.826 28.747 166.735 28.747 165.744 28.489 164.853 27.97 163.963 27.451 163.264 26.739 162.756 25.83 162.247 24.923 161.993 23.917 161.993 22.813 161.993 21.701 162.246 20.693 162.75 19.784 163.255 18.876 163.953 18.165 164.844 17.651 165.734 17.136 166.728 16.878 167.826 16.878 168.951 16.878 169.96 17.144 170.854 17.676 171.749 18.207 172.436 18.921 172.917 19.815 173.398 20.709 173.638 21.695 173.638 22.772M182.194 16.929C183.468 16.929 184.481 17.354 185.233 18.204 185.985 19.054 186.361 20.195 186.361 21.623L186.361 28.432 183.323 28.432 183.323 22.112C183.323 20.431 182.669 19.591 181.361 19.591 180.583 19.591 179.967 19.854 179.517 20.379 179.066 20.904 178.841 21.62 178.841 22.529L178.841 28.432 175.802 28.432 175.802 17.193 177.886 17.193 178.475 18.585C178.909 18.071 179.449 17.665 180.096 17.371 180.743 17.076 181.442 16.929 182.194 16.929M191.365 23.6419C192.751 23.6419 193.875 24.7659 193.875 26.1519 193.875 27.5379 192.751 28.6629 191.365 28.6629 189.978 28.6629 188.854 27.5379 188.854 26.1519 188.854 24.7659 189.978 23.6419 191.365 23.6419"/>
    <polygon fill="#FFF" points="129.254 41.343 129.254 43.23 120.457 43.23 120.457 68.945 118.475 68.945 118.475 43.23 109.659 43.23 109.659 41.343"/>
    <path fill="#FFF" d="M144.444 44.1341L138.015 59.5521 151.047 59.5521 144.444 44.1341zM155.049 68.9451L151.816 61.4001 137.246 61.4001 134.07 68.9451 131.953 68.9451 143.52 41.3431 145.31 41.3431 157.206 68.9451 155.049 68.9451zM173.801 55.76L188.66 55.76C188.596 57.736 188.214 59.565 187.515 61.245 186.816 62.927 185.872 64.361 184.686 65.547 183.498 66.735 182.074 67.661 180.412 68.328 178.751 68.995 176.957 69.329 175.032 69.329 172.376 69.329 169.993 68.72 167.882 67.501 165.772 66.282 164.129 64.595 162.955 62.439 161.78 60.283 161.194 57.858 161.194 55.163 161.194 52.468 161.79 50.04 162.984 47.878 164.177 45.716 165.825 44.026 167.931 42.806 170.034 41.587 172.389 40.978 174.994 40.978 178.24 40.978 181.102 41.899 183.579 43.739 186.055 45.581 187.595 47.933 188.198 50.794L186.158 50.794C185.568 48.484 184.239 46.595 182.174 45.125 180.108 43.656 177.728 42.921 175.032 42.921 172.787 42.921 170.763 43.445 168.96 44.49 167.157 45.536 165.749 46.992 164.736 48.86 163.722 50.727 163.215 52.827 163.215 55.163 163.215 58.756 164.315 61.692 166.516 63.969 168.716 66.247 171.555 67.386 175.032 67.386 178.1 67.386 180.685 66.49 182.789 64.7 184.894 62.91 186.139 60.566 186.524 57.665L173.801 57.665 173.801 55.76zM203.39 69.2718C200.438 69.2718 198.058 68.4928 196.248 66.9328 194.439 65.3748 193.535 63.2988 193.535 60.7068L195.556 60.7068C195.556 62.7208 196.274 64.3288 197.711 65.5288 199.149 66.7278 201.035 67.3278 203.37 67.3278 205.5 67.3278 207.245 66.7828 208.606 65.6918 209.966 64.6008 210.646 63.1698 210.646 61.3998 210.646 60.9628 210.598 60.5558 210.501 60.1768 210.406 59.7988 210.29 59.4618 210.156 59.1668 210.021 58.8718 209.815 58.5928 209.539 58.3298 209.263 58.0668 209.01 57.8448 208.779 57.6658 208.548 57.4858 208.224 57.3028 207.807 57.1168 207.39 56.9308 207.043 56.7838 206.768 56.6738 206.492 56.5658 206.09 56.4398 205.565 56.2988 205.038 56.1578 204.627 56.0518 204.332 55.9808 204.037 55.9108 203.601 55.8108 203.024 55.6828 201.881 55.4258 201.009 55.2178 200.407 55.0568 199.803 54.8968 199.033 54.6218 198.096 54.2298 197.16 53.8378 196.451 53.4158 195.969 52.9598 195.489 52.5038 195.058 51.8848 194.68 51.1018 194.301 50.3198 194.112 49.4268 194.112 48.4258 194.112 46.1558 194.933 44.3528 196.576 43.0178 198.218 41.6828 200.412 41.0158 203.159 41.0158 205.84 41.0158 207.977 41.7248 209.568 43.1428 211.16 44.5608 211.954 46.4628 211.954 48.8498L209.972 48.8498C209.972 47.0408 209.343 45.5998 208.086 44.5288 206.828 43.4578 205.173 42.9208 203.12 42.9208 201.015 42.9208 199.319 43.4158 198.029 44.4038 196.74 45.3918 196.095 46.7078 196.095 48.3488 196.095 48.7598 196.143 49.1478 196.239 49.5138 196.335 49.8788 196.451 50.2008 196.585 50.4758 196.72 50.7518 196.925 51.0188 197.202 51.2748 197.477 51.5318 197.727 51.7508 197.953 51.9298 198.176 52.1098 198.497 52.2858 198.914 52.4598 199.331 52.6318 199.681 52.7738 199.963 52.8818 200.245 52.9918 200.644 53.1138 201.157 53.2488 201.67 53.3828 202.074 53.4858 202.369 53.5558 202.664 53.6258 203.094 53.7258 203.659 53.8548 204.493 54.0468 205.125 54.1978 205.555 54.3068 205.985 54.4158 206.576 54.5888 207.326 54.8268 208.077 55.0638 208.657 55.2948 209.068 55.5188 209.478 55.7438 209.95 56.0518 210.483 56.4428 211.015 56.8338 211.416 57.2508 211.685 57.6948 211.954 58.1368 212.189 58.6728 212.388 59.3008 212.586 59.9298 212.686 60.6238 212.686 61.3798 212.686 63.7668 211.817 65.6788 210.078 67.1168 208.339 68.5528 206.11 69.2718 203.39 69.2718"/>
  </g>
</svg>
