<?xml version="1.0" standalone="no"?>
<!DOCTYPE svg PUBLIC "-//W3C//DTD SVG 20010904//EN"
 "http://www.w3.org/TR/2001/REC-SVG-20010904/DTD/svg10.dtd">
<svg version="1.0" xmlns="http://www.w3.org/2000/svg"
 width="700.000000pt" height="700.000000pt" viewBox="0 0 700.000000 700.000000"
 preserveAspectRatio="xMidYMid meet">
<metadata>
Created by potrace 1.11, written by Peter Selinger 2001-2013
</metadata>
<g transform="translate(0.000000,700.000000) scale(0.100000,-0.100000)"
fill="#000000" stroke="none">
<path d="M0 3500 l0 -3500 3500 0 3500 0 0 3500 0 3500 -3500 0 -3500 0 0
-3500z m5530 1920 l0 -270 -2025 0 -2025 0 0 270 0 270 2025 0 2025 0 0 -270z
m0 -1075 l0 -265 -680 0 -680 0 0 -1330 0 -1330 -665 0 -665 0 0 1330 0 1330
-680 0 -680 0 0 265 0 265 2025 0 2025 0 0 -265z"/>
</g>
</svg>
